<svg width="14" height="14" viewBox="0 0 14 14" fill="none" xmlns="http://www.w3.org/2000/svg"><g clip-path="url(#clip0_1703_443)"><path d="M.7 3.184c.02-.102.038-.204.063-.304.073-.278.2-.528.405-.733.366-.369.731-.738 1.104-1.1.309-.3.669-.448 1.092-.27.148.061.29.158.405.27.554.541 1.1 1.091 1.644 1.643.243.246.398.532.344.895-.04.27-.195.476-.381.663l-.93.926c-.159.16-.162.202-.07.409.352.79.893 1.447 1.471 2.075a9.549 9.549 0 001.935 1.638c.246.155.51.279.767.417.119.064.208.014.291-.07.32-.324.638-.652.968-.966.13-.124.278-.241.44-.315.33-.151.649-.082.937.128.074.053.142.115.206.18.523.52 1.049 1.038 1.565 1.567.125.128.242.278.316.44a.848.848 0 01-.152.968c-.403.445-.831.869-1.263 1.287-.237.23-.542.345-.868.4-.04.006-.079.018-.118.028h-.52c-.03-.008-.06-.018-.09-.024-.391-.082-.792-.13-1.171-.25-1.125-.356-2.143-.934-3.102-1.612a14.2 14.2 0 01-4.18-4.628 9.545 9.545 0 01-.933-2.208C.8 4.358.757 4.07.7 3.785v-.601z" fill="#fff"/></g><defs><clipPath id="clip0_1703_443"><path fill="#fff" d="M0 0h14v14H0z"/></clipPath></defs></svg>