<svg width="14" height="14" viewBox="0 0 14 14" fill="none" xmlns="http://www.w3.org/2000/svg"><g clip-path="url(#clip0_1703_457)" fill="#fff"><path d="M8.799 6.996v5.392c0 .426-.22.611-.727.611H1.718C1.223 13 1 12.812 1 12.398V4.285c0-.757.437-1.275 1.286-1.532 1.882-.57 3.763-1.142 5.645-1.71.4-.122.766.025.851.342.02.07.016.145.016.217v5.393zM4.893 5.495c.293 0 .587.002.88 0 .363-.004.63-.223.625-.507-.004-.278-.269-.49-.622-.493a186.75 186.75 0 00-1.743 0c-.367.001-.632.213-.633.499-.001.283.267.498.63.5.288.003.576.001.863.001zm.011 1h-.862c-.378.002-.647.216-.642.507.004.283.272.492.64.493.576.002 1.15.002 1.725 0 .365 0 .633-.215.633-.499 0-.284-.267-.498-.632-.5-.287-.002-.575 0-.861 0h-.001zM4.9 9.497c.287 0 .575.002.862 0 .366-.002.634-.213.636-.497.002-.284-.266-.5-.63-.502-.58-.003-1.161-.003-1.742 0-.364.002-.63.218-.626.504.003.278.267.491.62.495.293.004.587.001.88.001zM9.998 5.085c.73.27 1.442.499 2.115.79.579.25.875.7.879 1.244.012 1.786.006 3.572.004 5.359 0 .296-.245.517-.588.52-.811.005-1.623 0-2.435 0-.018 0-.036-.006-.013-.002.013-.397.035-.785.036-1.173.004-2.177.002-4.354.002-6.53v-.207z"/></g><defs><clipPath id="clip0_1703_457"><path fill="#fff" transform="translate(1 1)" d="M0 0h12v12H0z"/></clipPath></defs></svg>