<svg width="29" height="28" viewBox="0 0 29 28" fill="none" xmlns="http://www.w3.org/2000/svg"><path fill-rule="evenodd" clip-rule="evenodd" d="M14.334 28c7.732 0 14-6.268 14-14 0-.686-.05-1.36-.145-2.02l-.205.205-.233.117-.467.466v.117l-.117.117v.233l.117.35v.233l-.117.117c-.039.04-.14.117-.233.117-.08 0-.105.054-.113.052-.002 0-.003-.004-.003-.012v-.011V14.052c0-.093-.079-.039-.117 0a1.65 1.65 0 01-.35-.583c0-.145-.045-.155-.107-.17a.237.237 0 01-.127-.064c-.072-.072-.055-.1-.031-.137.014-.024.031-.052.031-.096v-.029-.016l-.001-.027c-.006-.066-.027-.13-.115-.394a2.374 2.374 0 01-.059-.194s.009.076-.058.076c-.055 0-.058-.025-.07-.112-.014-.098-.039-.277-.163-.587 0-.073-.045-.1-.107-.138a.656.656 0 01-.127-.096c-.067-.067-.095-.095-.13-.107-.025-.01-.053-.01-.103-.01h-.817c-.093 0-.194-.077-.233-.116-.156-.039-.49-.117-.583-.117-.094 0-.117-.078-.117-.117h-.467c.078.04.234.14.234.234 0 .063.102.092.215.124.095.027.198.056.251.11l.117.116c.045.044.09.072.127.095.062.039.106.066.106.138v.35l-.233.233c-.067.068-.096.096-.13.108-.025.01-.054.01-.103.01-.094 0-.117.077-.117.116-.078.039-.257.14-.35.233l-.117.117h-.35l-.35-.35c-.093 0-.116-.156-.116-.233a1.497 1.497 0 01-.234-.35c-.072-.073-.055-.1-.031-.138a.168.168 0 00.031-.096c0-.058-.029-.087-.073-.131-.043-.044-.102-.102-.16-.219l-.233-.233c-.094-.094-.117-.039-.117 0-.039-.039-.117-.094-.117 0 0 .058-.029.087-.058.116-.03.03-.058.059-.058.117v.7c0 .093.389.428.583.583l.117.234.116.116.35.234h.117c.078.078.257.233.35.233.093 0 .117.078.117.117h.116c0 .039.024.117.117.117s.039.077 0 .116v.35c0 .094-.078.117-.117.117l-.933.933v.583c0 .135 0 .192.022.238.017.034.045.063.095.113.093.093.038.194 0 .233l-.117.35v.116c0 .078-.023.257-.117.35a1.602 1.602 0 01-.35.234l-.116.117v.35l-.117.233c0 .039-.023.117-.117.117-.093 0-.116.077-.116.116v.233c0 .059-.03.088-.059.117-.029.03-.058.058-.058.117 0 .093-.078.116-.117.116l-.116.234c-.117.117-.35.373-.35.466 0 .094-.078.117-.117.117-.039.04-.14.117-.233.117-.094 0-.195.078-.234.117-.039.038-.14.116-.233.116h-.467l-.116-.233c-.04 0-.117-.093-.117-.467-.052-.052-.058-.08-.069-.139-.013-.07-.035-.186-.164-.444-.117-.117-.117-.7-.117-.817 0-.028 0-.05-.002-.072-.005-.065-.027-.13-.114-.393V17.434l.233-.466v-.117c0-.156-.024-.467-.117-.467-.05 0-.057-.02-.085-.098-.038-.106-.113-.315-.382-.718-.072-.217-.055-.21-.031-.201.014.005.031.012.031-.033 0-.058-.029-.087-.058-.117-.03-.029-.058-.058-.058-.116v-.117l-.117-.35-.35-.233h-.467l-.116-.117h-.35l-.117-.117c-.078.04-.257.117-.35.117-.093 0-.194.078-.233.117h-.234c-.033 0-.057 0-.08-.006-.056-.013-.103-.061-.27-.227a.695.695 0 01-.11-.154c-.046-.08-.103-.177-.24-.313 0-.059-.058-.146-.116-.233-.059-.088-.117-.175-.117-.234 0-.027 0-.048.003-.068.01-.067.051-.13.23-.397v-.351c0-.234 0-.35.117-.584.066-.13.094-.115.127-.096.027.014.055.03.106-.02l.35-.35c.072-.073.055-.1.032-.138-.015-.024-.032-.051-.032-.096v-.233c0-.093.311-.35.467-.467.039 0 .163-.023.35-.117.187-.093.311-.038.35 0h.233c.117 0 .234 0 .35-.116 0-.059.03-.059.088-.059.058 0 .146 0 .262-.058.187-.093.234.04.234.117h.233v.117a.37.37 0 01.233.116c.117.117.234.117.35.117.059 0 .088.029.117.058.03.03.058.059.117.059h.466c.04 0 .078.012.117.025.078.026.155.052.233-.026.076-.075.25-.003.395.056a.664.664 0 00.189.061c.05 0 .078 0 .103-.009.034-.012.063-.04.13-.107.072-.073.144-.1.244-.138.061-.024.134-.051.223-.096.093 0 .194-.233.233-.35l-.233-.233c-.059-.059-.059-.088-.059-.102v-.006a.01.01 0 00-.001-.003c-.002-.003-.005-.004-.012-.005h-.278c-.117 0-.35 0-.35-.117 0-.094-.234-.117-.35-.117h-.117c-.039.117-.14.326-.233.233 0-.093-.156-.116-.234-.116v-.234l-.233-.35c-.078-.116-.257-.35-.35-.35-.093 0-.117-.078-.117-.116h-.233l.583.583c.094.093.04.194 0 .233v.234c0 .093-.078.116-.116.116a.37.37 0 01-.117.234c-.072.072-.1.055-.138.031a.167.167 0 00-.095-.031c-.094 0-.117-.078-.117-.117v-.233h.233v-.117l-.35-.35c-.116-.117-.373-.35-.466-.35h-.117l-.117.117-.466.233c0 .039-.047.163-.234.35-.058.058-.058.087-.058.117 0 .029 0 .058-.058.116l-.117.117c-.117.039-.373.117-.467.117-.116 0-.233-.117-.35-.234-.058-.058-.058-.087-.058-.116 0-.03 0-.059-.058-.117-.082-.082-.05-.22-.023-.335a1.608 1.608 0 00.02-.1.264.264 0 00.003-.032c0-.093.233-.272.35-.35h.466c.094 0 .117-.078.117-.116v-.584a.37.37 0 00.233-.116c.094-.094.117-.04.117 0l.117-.117s.233-.117.35-.35c.067-.067.095-.096.13-.108a.178.178 0 01.053-.008h.05c.048 0 .056-.02.074-.06.025-.056.069-.153.276-.29.058 0 .058.028.058.072s0 .102.059.16c.072.073.1.056.137.032.024-.014.051-.031.096-.031.039 0 .065.012.09.025.053.026.104.052.26-.025.09-.045.161-.056.223-.065.1-.014.172-.025.244-.169V6.82c.039-.078.14-.304.233-.584a.313.313 0 00.041-.045.025.025 0 00.005-.015c0-.011-.012-.022-.031-.042-.044-.044-.132-.131-.248-.364-.094-.094-.117.038-.117.116l-.233.234c-.094.093-.04.194 0 .233v.117l-.234.233c-.039.039-.14.093-.233 0 0-.093-.078-.117-.117-.117v-.233c0-.093-.078-.117-.116-.117l-.117.117a.524.524 0 01-.35.117h-.117l-.116-.117v-.117l.116-.116c0-.04.024-.117.117-.117s.117-.078.117-.117c0 0 .116-.116.233-.116.039-.117.14-.374.233-.467l.234-.117h.116l.117-.116h.35c.117 0 .175-.03.233-.059.059-.029.117-.058.234-.058.077.039.256.117.35.117h.7l.466.116h.467c.078.04.257.094.35 0 .093-.093.117-.039.117 0 .038 0 .116-.023.116-.116 0-.052.068-.058.183-.069.147-.013.372-.034.634-.165.075-.075.102-.053.111-.06.003-.001.004-.005.005-.013V4.72l.234-.117h.233l.234.233.583-.466.009-.002A13.96 13.96 0 0014.334 0c-4.23 0-8.023 1.877-10.59 4.843.284.014.671.043.997.068.293.022.535.04.61.04.186 0 .777.156 1.05.234.116-.078.326-.256.233-.35-.054-.053-.156-.082-.252-.11-.112-.031-.215-.06-.215-.123 0-.117.234-.467.467-.35.09.044.161.089.223.127.1.062.172.106.244.106h.466c.187 0 .311.078.35.117.04.039.094.14 0 .233l-.35.35h.584c.116 0 .35 0 .35-.116v-.234c-.078 0-.234-.046-.234-.233 0-.216.2-.232.415-.14l.169-.093c-.04-.078-.094-.234 0-.234h.35l.116.35h.934c.233 0 .466.117.7.467.154.231.206.31.19.37-.008.03-.034.057-.074.097l-.35.35c-.116.116-.35.116-.466.116-.117 0-.35-.116-.35-.233 0-.072.044-.1.106-.138.038-.023.082-.05.127-.095.117-.117.117-.234 0-.35-.117-.117-.35 0-.467.116-.032.033-.084.093-.143.163-.151.18-.356.42-.44.42-.117 0-.117-.233 0-.466s.117-.467 0-.467-.35.467-.467.817c-.076.23-.354.258-.602.284-.13.013-.25.026-.331.066-.233.117-.233.583 0 .817.233.233.7.35.933.233.234-.117.467-.233.467-.35a.205.205 0 00-.016-.076c-.021-.058-.038-.103.133-.274.233-.233.35-.35.466-.233.04.038.091.064.143.09.104.052.207.104.207.26 0 .186.156.155.234.116.039-.078.163-.233.35-.233a.725.725 0 00.113-.009c.04-.004.066-.008.083.003.037.022.037.104.037.356a2.5 2.5 0 01-.086.655v.001c-.018.07-.03.122-.03.16 0 .05 0 .079.008.104.012.034.04.063.108.13.117.117.233.233.117.35-.117.117-.234.233-.35.117l-.234-.234c-.067-.067-.095-.095-.13-.108a.15.15 0 00-.038-.007l-.021-.001h-.044c-.093 0-.272.077-.35.116-.039.04-.093.14 0 .234a.37.37 0 01.117.233l-.117.117c-.156.038-.49.116-.583.116-.094 0-.117.156-.117.234l-.117.116c-.073.04-.233.117-.285.117a.21.21 0 01-.078-.027c-.053-.026-.103-.05-.103.027 0 .093-.234.272-.35.35-.04 0-.117.023-.117.117 0 .044.017.072.032.095.023.038.04.066-.032.138a1.586 1.586 0 01-.197.153c-.113.08-.25.177-.386.313a1.831 1.831 0 01-.234.198c-.077.057-.116.085-.116.152v.817h-.117c-.117 0-.233 0-.233-.117 0-.048-.02-.056-.044-.066-.033-.013-.073-.03-.073-.167 0-.117 0-.146-.015-.16a.043.043 0 00-.007-.006l-.013-.007a.283.283 0 01-.082-.06.452.452 0 00-.112-.095c-.046-.022-.104-.022-.238-.022h-.583c-.156.04-.49.163-.583.35-.117.233-.234.467-.234.7 0 .134 0 .191.023.238.016.034.044.063.094.112l.233.233c.094.094.195.04.234 0a.37.37 0 00.233-.116.37.37 0 01.233-.117l.234.117-.35.466.233.234.233-.117c.078.04.234.14.234.233v.35c0 .059.029.059.058.059.03 0 .058 0 .058.058 0 .093.078.195.117.233.039.04.093.117 0 .117-.045 0-.055.017-.064.032-.015.023-.025.04-.17-.032-.142-.071-.197-.099-.245-.136-.03-.024-.059-.051-.104-.096v-.001l-.234-.233c.04 0 .07-.024-.116-.117-.09-.045-.162-.09-.223-.127-.1-.062-.172-.107-.244-.107-.048 0-.077-.02-.11-.043a.356.356 0 00-.24-.073h-.7c-.117-.117-.35-.373-.35-.467a.414.414 0 00-.058-.175.414.414 0 01-.059-.175c0-.039.013-.09.026-.142.026-.104.052-.208-.026-.208-.058 0-.087-.087-.116-.175-.03-.087-.059-.175-.117-.175-.093 0-.272-.155-.35-.233v.7h-.117c-.116 0-.233 0-.233-.117 0-.093-.078-.194-.117-.233v-1.05l-.233-.583v-.234c0-.058.03-.116.058-.175.03-.058.059-.116.059-.175 0-.093.077-.194.116-.233.117-.195.35-.607.35-.7v-.933c0-.067-.215-.196-.354-.279l-.049-.029a.485.485 0 01-.063-.042c-.04 0-.117-.024-.117-.117v-.43A13.934 13.934 0 00.334 14c0 7.732 6.268 14 14 14zM9.784 3.785c-.093-.093.272-.194.467-.233.077-.039.256-.117.35-.117H12c.033 0 .056 0 .076-.002a.133.133 0 00.027-.007c.034-.012.063-.04.13-.107.075-.075.102-.054.172.001.04.031.094.073.178.115.233.117.467.117.7.117h1.095c.086-.005.17-.033.77-.233h.001c.135-.068.153-.057.19-.037.026.016.062.037.16.037h.467l.117.116-.117.234-.116.116-.117.234c-.039.038-.117.14-.117.233 0 .058-.029.117-.058.175a.414.414 0 00-.058.175c0 .058-.088.117-.175.175-.088.058-.175.117-.175.175 0 .093-.234.117-.35.117-.117.038-.374.116-.467.116-.048 0-.117.04-.197.087-.113.066-.25.147-.386.147-.187 0-.234.077-.234.116-.116.04-.35.14-.35.234 0 .116-.116.116-.233.116-.093 0-.117.078-.117.117-.039.039-.14.117-.233.117-.027 0-.048 0-.069-.003-.067-.01-.13-.052-.398-.23-.067-.068-.095-.096-.107-.13C12 5.73 12 5.7 12 5.651v-.233c0-.059.03-.088.059-.117.03-.03.058-.058.058-.117v-.233a.37.37 0 01.117-.233c.049-.049.077-.077.085-.11.011-.047-.017-.104-.085-.24-.032-.044-.06-.047-.093-.05-.036-.002-.079-.006-.14-.067-.068-.067-.096-.057-.153-.036-.042.015-.099.036-.197.036-.137 0-.114-.04-.094-.073.014-.024.025-.044-.023-.044s-.057-.02-.066-.043c-.014-.033-.03-.073-.167-.073s-.154-.04-.167-.074c-.01-.023-.018-.043-.067-.043-.116 0-.116.117-.116.233 0 .059-.059.059-.146.059-.088 0-.204 0-.321.058a.559.559 0 01-.467 0h-.466c-.094 0-.117-.078-.117-.117v-.233h.117c.039.039.14.117.233.117h.233l-.233-.234zm-2.333.117c-.094 0-.195.155-.234.233.156.04.514.117.7.117.234 0 .35-.35.117-.35h-.583zm-.117 10.033c-.093 0-.272.078-.35.117v.117c.08.159.105.21.113.262.004.025.004.05.004.088-.059.233-.059.35-.059.422 0 .073 0 .102-.058.16-.387.774-.373.827-.357.888a.213.213 0 01.007.046c0 .093.078.117.117.117l.116.233-.116.117c-.042.042-.054.053-.052.062a.012.012 0 00.002.005l.002.002a.092.092 0 00.004.004c.014.014.044.044.044.16a.482.482 0 01.017.31c-.017.066-.024.095.1.157a.762.762 0 01.218.16c.044.044.073.073.131.073.117 0 .467 0 .467.117 0 .042 0 .053.005.057l.004.001h.006c.014 0 .043 0 .102.059.186.186.233.388.233.466-.039.04-.093.14 0 .233.057.058.03.425.001.812-.03.4-.06.82-.001.939.053.105.034.139.02.166-.019.033-.031.055.097.183.28.374.261.448.242.523l-.007.035a.177.177 0 00-.002.026v.7c0 .05 0 .078.009.103.012.035.04.063.108.13.044.045.089.072.127.096.061.038.106.065.106.137 0 .117 0 .35.117.35.058 0 .087.059.116.117.03.059.059.117.117.117.117 0 .233.117.35.233.058.058.087.058.117.058.029 0 .058 0 .116.059.094.093.273.116.35.116.04 0 .094-.023 0-.116-.058-.059-.058-.088-.058-.117 0-.029 0-.058-.058-.116-.048-.049-.057-.057-.058-.067-.003-.013.01-.03-.059-.167a1.168 1.168 0 01-.117-.466v-.234c0-.093-.077-.35-.116-.466l.233-.584.817-.816c0 .038.023.07.116-.117.045-.09.09-.144.127-.191.062-.076.107-.132.107-.276 0-.089-.017-.161-.032-.223-.023-.1-.04-.171.032-.244a.37.37 0 00.116-.233c.117-.078.374-.257.467-.35l.233-.233c-.039-.117-.093-.35 0-.35.094 0 .117-.156.117-.233v-.35c-.039 0-.093-.024 0-.117.066-.066.094-.168.127-.286a1.62 1.62 0 01.106-.297c.03-.059.059-.103.084-.14.077-.116.12-.181.033-.444a7.454 7.454 0 01-.065-.207c-.058-.19-.079-.26-.168-.26-.059 0-.204-.029-.35-.058s-.292-.058-.35-.058c-.094 0-.195-.078-.234-.117a.37.37 0 01-.233-.117l-.233-.233c0-.078-.024-.233-.117-.233-.117 0-.7-.467-.817-.584a4.301 4.301 0 00-.466-.35.37.37 0 01-.234-.116c-.116-.117-.35-.233-.466-.233-.049 0-.077-.02-.11-.044-.047-.033-.104-.073-.24-.073-.467.117-.817.35-.817.583zm8.983-7.233v.233a.652.652 0 01-.127.096c-.062.038-.106.065-.106.138v.233c0 .233.117.233.117.233.038.04.116.094.116 0 0-.093.078-.116.117-.116v-.117c.039 0 .117.023.117.117 0 .093.077.116.116.116h.117l.35-.35V7.17c0-.04-.023-.117-.117-.117-.058 0-.058-.03-.058-.058 0-.03 0-.059-.058-.059-.094 0-.117-.078-.117-.116l-.117-.117c-.039-.078-.163-.187-.35 0z" fill="#fff"/></svg>