<svg width="24" height="24" viewBox="0 0 24 24" fill="none" xmlns="http://www.w3.org/2000/svg"><g clip-path="url(#clip0_1703_353)" fill="#fff"><path d="M0 6.555c.036-.173.066-.349.11-.52.124-.478.344-.906.693-1.257.628-.632 1.254-1.265 1.893-1.886.53-.515 1.146-.768 1.873-.464.252.106.497.272.694.464.949.928 1.885 1.87 2.818 2.816.416.422.683.913.59 1.535-.07.463-.335.816-.654 1.136-.53.531-1.063 1.059-1.593 1.589-.273.273-.278.345-.12.7.603 1.354 1.53 2.48 2.522 3.557.988 1.072 2.077 2.032 3.315 2.81.422.264.877.477 1.316.713.203.11.355.024.499-.12.55-.555 1.093-1.118 1.658-1.656.223-.212.478-.414.755-.54.565-.259 1.112-.141 1.607.22.126.09.243.197.353.307.897.892 1.798 1.781 2.682 2.687.215.22.415.477.542.753.274.595.168 1.19-.26 1.66a48.05 48.05 0 01-2.165 2.208c-.407.395-.93.592-1.489.684-.068.011-.135.032-.201.05h-.891c-.052-.014-.103-.03-.155-.041-.67-.14-1.359-.224-2.008-.43-1.929-.61-3.674-1.6-5.317-2.763-2.978-2.107-5.363-4.762-7.167-7.933C1.219 11.636.665 10.38.302 9.049.172 8.569.099 8.074 0 7.587V6.555zM23.998 11.245l-1.843.332c-.46-2.534-1.59-4.7-3.424-6.484-1.835-1.785-4.032-2.856-6.606-3.245L12.381 0a13.49 13.49 0 014.349 1.37 13.666 13.666 0 014.718 3.988 13.469 13.469 0 012.458 5.46c.023.113.062.223.093.334v.094z"/><path d="M19.128 11.576l-1.81.31c-.681-2.914-2.479-4.664-5.431-5.27l.25-1.803c3.17.348 6.342 2.956 6.991 6.763z"/></g><defs><clipPath id="clip0_1703_353"><path fill="#fff" d="M0 0h24v24H0z"/></clipPath></defs></svg>