<svg width="23" height="26" viewBox="0 0 23 26" fill="none" xmlns="http://www.w3.org/2000/svg"><g clip-path="url(#clip0_1703_346)" fill="#fff"><path d="M10.85 26c-.407-.046-.815-.088-1.22-.14a12.505 12.505 0 01-4.309-1.384c-2.15-1.148-3.863-2.78-5.164-4.854-.19-.303-.21-.574-.05-.9 1.18-2.393 3.043-3.923 5.611-4.574.203-.052.411-.08.616-.124.404-.088.752.026 1.086.264 1.326.945 2.81 1.367 4.428 1.295 1.23-.054 2.413-.355 3.402-1.088.75-.556 1.47-.52 2.274-.293 2.223.628 3.901 1.965 5.087 3.948.142.237.273.49.358.752.046.141.04.351-.034.475a13.507 13.507 0 01-4.665 4.738c-1.445.879-3.01 1.433-4.668 1.713-.495.084-.997.117-1.495.173H10.85zM11.498 13.502c-3.671-.009-6.7-3.075-6.682-6.766C4.834 3.023 7.868-.024 11.524 0c3.674.024 6.67 3.057 6.668 6.751-.001 3.703-3.033 6.76-6.695 6.751z"/></g><defs><clipPath id="clip0_1703_346"><path fill="#fff" d="M0 0h23v26H0z"/></clipPath></defs></svg>