<svg width="177" height="18" viewBox="0 0 177 18" fill="none" xmlns="http://www.w3.org/2000/svg"><path d="M115.129 17.469h-3.763L118.557.531h3.403l7.191 16.938h-3.859l-5.081-12.493-5.082 12.493zM94.005 17.469h12.28v-3.388h-8.47V.531h-3.81V17.47z" fill="#EAEAEA"/><path fill-rule="evenodd" clip-rule="evenodd" d="M79.184 14.25a5.25 5.25 0 100-10.5 5.25 5.25 0 000 10.5zm0 3.642a8.892 8.892 0 100-17.784 8.892 8.892 0 000 17.784z" fill="#EAEAEA"/><path d="M58.078 17.892c3.693 0 6.285-1.926 6.285-5.36v-.05c0-3.013-1.956-4.272-5.43-5.186-2.959-.766-3.693-1.137-3.693-2.273v-.05c0-.84.758-1.506 2.201-1.506 1.444 0 2.936.642 4.452 1.704l1.957-2.865C62.113.898 59.985.108 57.49.108c-3.497 0-5.992 2.075-5.992 5.212v.049c0 3.433 2.226 4.397 5.675 5.286 2.861.741 3.448 1.235 3.448 2.198v.05c0 1.012-.93 1.63-2.47 1.63-1.957 0-3.571-.815-5.112-2.1l-2.226 2.693c2.055 1.852 4.672 2.766 7.264 2.766zM152.864 17.469h3.811V.531h-3.811V17.47zM144.395 17.469h-4.394l-5.885-8.71h3.078c1.83 0 2.88-.969 2.88-2.396v-.049c0-1.597-1.123-2.395-2.954-2.395h-3.735V.53h4.053c2.172 0 3.857.605 4.98 1.718.952.944 1.464 2.275 1.464 3.872v.048c0 2.734-1.489 4.452-3.661 5.25l4.174 6.05zM40.227 17.469h3.811V.531h-3.81V17.47zM31.759 17.469h-4.395l-5.884-8.71h3.077c1.831 0 2.88-.969 2.88-2.396v-.049c0-1.597-1.122-2.395-2.953-2.395h-3.735V.53H24.8c2.173 0 3.857.605 4.98 1.718.952.944 1.465 2.275 1.465 3.872v.048c0 2.734-1.49 4.452-3.662 5.25l4.175 6.05zM5.132 17.469h3.71V3.919h5.132V.53H0V3.92h5.132v13.55zM170.714 17.892c3.693 0 6.286-1.926 6.286-5.36v-.05c0-3.013-1.957-4.272-5.43-5.186-2.96-.766-3.693-1.137-3.693-2.273v-.05c0-.84.758-1.506 2.201-1.506s2.935.642 4.451 1.704l1.957-2.865C174.75.898 172.622.108 170.127.108c-3.498 0-5.993 2.075-5.993 5.212v.049c0 3.433 2.226 4.397 5.675 5.286 2.862.741 3.449 1.235 3.449 2.198v.05c0 1.012-.93 1.63-2.471 1.63-1.956 0-3.571-.815-5.112-2.1l-2.225 2.693c2.054 1.852 4.671 2.766 7.264 2.766z" fill="#EAEAEA"/></svg>