<?xml version="1.0" standalone="no"?>
<!DOCTYPE svg PUBLIC "-//W3C//DTD SVG 20010904//EN"
 "http://www.w3.org/TR/2001/REC-SVG-20010904/DTD/svg10.dtd">
<svg version="1.0" xmlns="http://www.w3.org/2000/svg"
 width="103.000000pt" height="103.000000pt" viewBox="0 0 103.000000 103.000000"
 preserveAspectRatio="xMidYMid meet">
<metadata>
Created by potrace 1.14, written by Peter Selinger 2001-2017
</metadata>
<g transform="translate(0.000000,103.000000) scale(0.100000,-0.100000)"
fill="#000000" stroke="none">
<path d="M396 994 c-162 -38 -308 -175 -357 -334 -71 -231 35 -477 253 -583
155 -75 308 -76 463 -2 176 84 278 252 274 450 -3 162 -65 283 -196 383 -115
89 -283 122 -437 86z m231 -64 c234 -54 383 -292 323 -516 -87 -324 -496 -433
-736 -197 -201 198 -156 528 91 667 92 51 220 69 322 46z"/>
<path d="M424 880 c-95 -21 -202 -109 -250 -205 -26 -54 -29 -69 -29 -160 0
-89 4 -106 28 -157 36 -74 106 -141 187 -181 60 -29 73 -31 165 -31 87 0 107
3 157 26 70 33 141 97 179 163 41 72 39 85 -16 85 -42 0 -46 -3 -64 -38 -24
-47 -88 -106 -138 -128 -24 -11 -67 -17 -119 -17 -68 -1 -88 3 -138 27 -212
104 -207 403 9 505 136 64 321 5 386 -121 18 -35 23 -38 64 -38 52 0 56 10 25
71 -79 154 -266 237 -446 199z"/>
<path d="M440 515 l0 -55 235 0 235 0 0 55 0 55 -235 0 -235 0 0 -55z"/>
</g>
</svg>
